<?xml version="1.0" encoding="UTF-8"?>
<svg id="Layer_1" xmlns="http://www.w3.org/2000/svg" version="1.1" viewBox="0 0 491.45 490.14">
  <!-- Generator: Adobe Illustrator 29.5.1, SVG Export Plug-In . SVG Version: 2.1.0 Build 141)  -->
  <defs>
    <style>
      .st0 {
        fill: #d32a40;
      }

      .st1 {
        fill: #fff;
      }
    </style>
  </defs>
  <g>
    <path class="st0" d="M491.45,0v490.14s-491.45,0-491.45,0V0h491.45ZM316.75,61.39h-130.54v17.27h129.1l1.44-1.44v-15.83ZM216.93,86.33h-17.28l.04,255.66c-2.38,30.95-15.21,60.76-48.19,67.91-11.17,2.42-27.22,2.83-35.75-6.17-8.3-8.75,1.01-10.44,5.61-17.24,30.66-45.41-45.91-85.06-65.86-35.12-14.68,36.75,14.89,64.48,47.96,73.28,63.7,16.94,109.12-15.73,113.51-80.74l-.04-257.58ZM245.72,86.33h-17.28v286.79h17.28V86.33ZM274.52,86.33h-17.28v286.79h17.28V86.33ZM303.31,86.33h-17.28v286.79h17.28V86.33ZM438.65,320.36l-10.43.12c-7.85,32.44-23.02,66.63-56.11,79.66-4.42,1.74-17.08,5.58-21.29,5.58h-149.26v17.27h237.08v-102.63ZM315.79,380.79h-99.83v17.27h99.83v-17.27Z"/>
    <path class="st1" d="M216.93,86.33l.04,257.58c-4.39,65-49.81,97.68-113.51,80.74-33.07-8.79-62.64-36.53-47.96-73.28,19.95-49.94,96.52-10.29,65.86,35.12-4.59,6.8-13.9,8.48-5.61,17.24,8.54,9.01,24.58,8.6,35.75,6.17,32.97-7.15,45.81-36.96,48.19-67.91l-.04-255.66h17.28Z"/>
    <path class="st1" d="M438.65,320.36v102.63h-237.08v-17.27h149.26c4.21,0,16.87-3.84,21.29-5.58,33.09-13.03,48.25-47.22,56.11-79.66l10.43-.12Z"/>
    <rect class="st1" x="257.24" y="86.33" width="17.28" height="286.79"/>
    <rect class="st1" x="228.45" y="86.33" width="17.28" height="286.79"/>
    <rect class="st1" x="286.04" y="86.33" width="17.28" height="286.79"/>
    <polygon class="st1" points="316.75 61.39 316.75 77.21 315.31 78.65 186.21 78.65 186.21 61.39 316.75 61.39"/>
    <rect class="st1" x="215.97" y="380.79" width="99.83" height="17.27"/>
  </g>
  <path class="st1" d="M452.4,319.88c1.45,0,2.79.26,4.01.79s2.29,1.23,3.2,2.11c.9.89,1.62,1.93,2.14,3.14.52,1.21.78,2.5.78,3.86s-.26,2.72-.78,3.92c-.52,1.21-1.24,2.26-2.14,3.17-.9.9-1.97,1.62-3.2,2.14s-2.56.78-4.01.78-2.74-.26-3.98-.78c-1.25-.52-2.33-1.24-3.26-2.14-.93-.91-1.65-1.96-2.17-3.17-.52-1.21-.78-2.51-.78-3.92s.26-2.65.78-3.86c.52-1.21,1.25-2.25,2.17-3.14.92-.88,2.01-1.59,3.26-2.11,1.25-.52,2.57-.79,3.98-.79ZM452.4,321.87c-1.09,0-2.1.21-3.05.63-.95.42-1.76.99-2.44,1.69s-1.22,1.54-1.6,2.5c-.38.97-.57,1.99-.57,3.08s.19,2.11.57,3.08c.38.97.91,1.81,1.6,2.53.68.72,1.5,1.29,2.44,1.69.94.4,1.98.6,3.11.6s2.09-.2,3.02-.6c.92-.4,1.72-.96,2.38-1.69.66-.72,1.19-1.56,1.57-2.5.38-.94.57-1.96.57-3.05s-.19-2.11-.57-3.08c-.38-.97-.91-1.81-1.57-2.53-.66-.72-1.47-1.3-2.41-1.72-.95-.42-1.96-.63-3.05-.63ZM450.84,334.96h-2.29v-9.9c1-.2,2.27-.3,3.8-.3.92,0,1.64.07,2.14.21.5.14.94.31,1.3.51.28.2.51.49.69.87.18.38.27.81.27,1.3,0,.56-.19,1.04-.57,1.42s-.87.67-1.48.87v.12c.92.36,1.53,1.17,1.81,2.41.16.76.29,1.32.39,1.66.1.34.21.61.33.81h-2.47c-.16-.2-.29-.51-.39-.93-.1-.42-.23-.91-.39-1.48-.16-1.04-.85-1.57-2.05-1.57h-1.09v3.98ZM450.9,329.35h1.09c.64,0,1.19-.11,1.63-.33.44-.22.66-.59.66-1.12,0-1-.7-1.51-2.11-1.51-.52,0-.95.04-1.27.12v2.84Z"/>
</svg>