<?xml version="1.0" encoding="UTF-8"?>
<svg id="Layer_1" xmlns="http://www.w3.org/2000/svg" version="1.1" viewBox="0 0 3221.39 605.9">
  <!-- Generator: Adobe Illustrator 29.5.1, SVG Export Plug-In . SVG Version: 2.1.0 Build 141)  -->
  <defs>
    <style>
      .st0 {
        fill: #d32a40;
      }

      .st1 {
        fill: #fff;
      }
    </style>
  </defs>
  <g>
    <path class="st0" d="M491.45,47.16v490.14s-491.45,0-491.45,0V47.16h491.45ZM316.75,108.55h-130.54v17.27h129.1l1.44-1.44v-15.83ZM216.93,133.48h-17.28l.04,255.66c-2.38,30.95-15.21,60.76-48.19,67.91-11.17,2.42-27.22,2.83-35.75-6.17-8.3-8.75,1.01-10.44,5.61-17.24,30.66-45.41-45.91-85.06-65.86-35.12-14.68,36.75,14.89,64.48,47.96,73.28,63.7,16.94,109.12-15.73,113.51-80.74l-.04-257.58ZM245.72,133.48h-17.28v286.79h17.28V133.48ZM274.52,133.48h-17.28v286.79h17.28V133.48ZM303.31,133.48h-17.28v286.79h17.28V133.48ZM438.65,367.52l-10.43.12c-7.85,32.44-23.02,66.63-56.11,79.66-4.42,1.74-17.08,5.58-21.29,5.58h-149.26v17.27h237.08v-102.63ZM315.79,427.95h-99.83v17.27h99.83v-17.27Z"/>
    <path class="st1" d="M216.93,133.48l.04,257.58c-4.39,65-49.81,97.68-113.51,80.74-33.07-8.79-62.64-36.53-47.96-73.28,19.95-49.94,96.52-10.29,65.86,35.12-4.59,6.8-13.9,8.48-5.61,17.24,8.54,9.01,24.58,8.6,35.75,6.17,32.97-7.15,45.81-36.96,48.19-67.91l-.04-255.66h17.28Z"/>
    <path class="st1" d="M438.65,367.52v102.63h-237.08v-17.27h149.26c4.21,0,16.87-3.84,21.29-5.58,33.09-13.03,48.25-47.22,56.11-79.66l10.43-.12Z"/>
    <rect class="st1" x="257.24" y="133.48" width="17.28" height="286.79"/>
    <rect class="st1" x="228.45" y="133.48" width="17.28" height="286.79"/>
    <rect class="st1" x="286.04" y="133.48" width="17.28" height="286.79"/>
    <polygon class="st1" points="316.75 108.55 316.75 124.37 315.31 125.81 186.21 125.81 186.21 108.55 316.75 108.55"/>
    <rect class="st1" x="215.97" y="427.95" width="99.83" height="17.27"/>
  </g>
  <path class="st1" d="M452.4,367.03c1.45,0,2.79.26,4.01.79s2.29,1.23,3.2,2.11c.9.89,1.62,1.93,2.14,3.14.52,1.21.78,2.5.78,3.86s-.26,2.72-.78,3.92c-.52,1.21-1.24,2.26-2.14,3.17-.9.9-1.97,1.62-3.2,2.14s-2.56.78-4.01.78-2.74-.26-3.98-.78c-1.25-.52-2.33-1.24-3.26-2.14-.93-.91-1.65-1.96-2.17-3.17-.52-1.21-.78-2.51-.78-3.92s.26-2.65.78-3.86c.52-1.21,1.25-2.25,2.17-3.14.92-.88,2.01-1.59,3.26-2.11,1.25-.52,2.57-.79,3.98-.79ZM452.4,369.02c-1.09,0-2.1.21-3.05.63-.95.42-1.76.99-2.44,1.69s-1.22,1.54-1.6,2.5c-.38.97-.57,1.99-.57,3.08s.19,2.11.57,3.08c.38.97.91,1.81,1.6,2.53.68.72,1.5,1.29,2.44,1.69.94.4,1.98.6,3.11.6s2.09-.2,3.02-.6c.92-.4,1.72-.96,2.38-1.69.66-.72,1.19-1.56,1.57-2.5.38-.94.57-1.96.57-3.05s-.19-2.11-.57-3.08c-.38-.97-.91-1.81-1.57-2.53-.66-.72-1.47-1.3-2.41-1.72-.95-.42-1.96-.63-3.05-.63ZM450.84,382.12h-2.29v-9.9c1-.2,2.27-.3,3.8-.3.92,0,1.64.07,2.14.21.5.14.94.31,1.3.51.28.2.51.49.69.87.18.38.27.81.27,1.3,0,.56-.19,1.04-.57,1.42s-.87.67-1.48.87v.12c.92.36,1.53,1.17,1.81,2.41.16.76.29,1.32.39,1.66.1.34.21.61.33.81h-2.47c-.16-.2-.29-.51-.39-.93-.1-.42-.23-.91-.39-1.48-.16-1.04-.85-1.57-2.05-1.57h-1.09v3.98ZM450.9,376.51h1.09c.64,0,1.19-.11,1.63-.33.44-.22.66-.59.66-1.12,0-1-.7-1.51-2.11-1.51-.52,0-.95.04-1.27.12v2.84Z"/>
  <g>
    <path d="M612.77,343.46h21.96v174.31h109.53v20.29h-131.49v-194.6Z"/>
    <path d="M762.06,441.32v-.56c0-53.65,40.31-100.64,99.52-100.64s98.97,46.43,98.97,100.08v.56c0,53.65-40.31,100.64-99.52,100.64s-98.97-46.43-98.97-100.08ZM937.75,441.32v-.56c0-44.2-32.25-80.34-76.73-80.34s-76.17,35.58-76.17,79.79v.56c0,44.2,32.25,80.34,76.73,80.34s76.17-35.58,76.17-79.79Z"/>
    <path d="M992.8,509.71l13.62-16.12c20.29,18.35,39.75,27.52,66.72,27.52s43.37-13.9,43.37-33.08v-.56c0-18.07-9.73-28.36-50.6-36.97-44.76-9.73-65.33-24.19-65.33-56.16v-.56c0-30.58,26.97-53.1,63.94-53.1,28.36,0,48.65,8.06,68.39,23.91l-12.79,16.96c-18.07-14.73-36.14-21.13-56.16-21.13-25.3,0-41.42,13.9-41.42,31.41v.56c0,18.35,10.01,28.63,52.82,37.81,43.37,9.45,63.38,25.3,63.38,55.04v.56c0,33.36-27.8,55.04-66.44,55.04-30.86,0-56.16-10.29-79.51-31.14Z"/>
    <path d="M1338.9,342.07h20.57l88.68,195.99h-23.63l-22.8-51.43h-105.92l-23.07,51.43h-22.52l88.68-195.99ZM1393.11,466.9l-44.2-99.25-44.48,99.25h88.68Z"/>
    <path d="M1486.52,343.46h20.57l122.6,155.96v-155.96h21.41v194.6h-17.51l-125.66-159.57v159.57h-21.41v-194.6Z"/>
    <path d="M1697.52,441.32v-.56c0-53.38,39.2-100.64,97.58-100.64,32.8,0,53.1,9.45,72.56,25.85l-14.18,16.68c-15.01-13.07-31.69-22.24-59.21-22.24-43.09,0-73.95,36.42-73.95,79.79v.56c0,46.43,29.75,80.9,77.01,80.9,22.24,0,42.81-8.62,56.16-19.46v-48.37h-59.21v-19.74h80.34v77.56c-18.07,16.12-45.31,29.75-78.12,29.75-61.16,0-98.97-44.48-98.97-100.08Z"/>
    <path d="M1924.09,343.46h140.67v20.02h-118.71v66.44h106.2v20.02h-106.2v68.11h120.1v20.02h-142.06v-194.6Z"/>
    <path d="M2110.35,343.46h21.96v174.31h109.53v20.29h-131.49v-194.6Z"/>
    <path d="M2281.32,343.46h140.67v20.02h-118.71v66.44h106.2v20.02h-106.2v68.11h120.1v20.02h-142.06v-194.6Z"/>
    <path d="M2454.79,509.71l13.62-16.12c20.29,18.35,39.75,27.52,66.72,27.52s43.37-13.9,43.37-33.08v-.56c0-18.07-9.73-28.36-50.6-36.97-44.76-9.73-65.33-24.19-65.33-56.16v-.56c0-30.58,26.97-53.1,63.94-53.1,28.36,0,48.65,8.06,68.39,23.91l-12.79,16.96c-18.07-14.73-36.14-21.13-56.15-21.13-25.3,0-41.42,13.9-41.42,31.41v.56c0,18.35,10.01,28.63,52.82,37.81,43.37,9.45,63.38,25.3,63.38,55.04v.56c0,33.36-27.8,55.04-66.44,55.04-30.86,0-56.16-10.29-79.51-31.14Z"/>
  </g>
  <g>
    <path class="st0" d="M589.56,232.43l29.86-33.25c12.31,13.55,24.32,21.55,39.41,21.55,17.86,0,28.94-10.77,28.94-35.71V46.17h48.64v141c0,25.55-7.39,44.64-20.32,57.57-13.24,13.24-32.63,20.01-56.03,20.01-33.56,0-55.72-14.78-70.5-32.33Z"/>
    <path class="st0" d="M781.35,169.32V46.17h47.41v121.91c0,35.1,17.55,53.26,46.49,53.26s46.49-17.55,46.49-51.72V46.17h47.41v121.6c0,65.27-36.64,97.28-94.51,97.28s-93.28-32.33-93.28-95.74Z"/>
    <path class="st0" d="M1017.48,46.17h43.72l100.98,132.69V46.17h46.79v215.5h-40.33l-104.36-137v137h-46.79V46.17Z"/>
    <path class="st0" d="M1262.84,46.17h47.41v215.5h-47.41V46.17Z"/>
    <path class="st0" d="M1354.58,154.54v-.62c0-61.26,48.33-111.45,114.83-111.45s114.22,49.57,114.22,110.83v.62c0,61.26-48.33,111.45-114.83,111.45s-114.22-49.57-114.22-110.83ZM1534.06,154.54v-.62c0-36.94-27.09-67.73-65.27-67.73s-64.65,30.17-64.65,67.11v.62c0,36.94,27.09,67.73,65.27,67.73s64.65-30.17,64.65-67.11Z"/>
    <path class="st0" d="M1625.79,46.17h98.52c27.4,0,48.64,7.7,62.8,21.86,12.01,12.01,18.47,28.94,18.47,49.26v.62c0,34.79-18.78,56.65-46.18,66.81l52.64,76.97h-55.42l-46.18-68.96h-37.25v68.96h-47.41V46.17ZM1721.23,150.84c23.09,0,36.33-12.31,36.33-30.48v-.62c0-20.32-14.16-30.79-37.25-30.79h-47.1v61.88h48.03Z"/>
    <path class="st0" d="M1940.72,46.17h47.41v172.4h107.44v43.1h-154.85V46.17Z"/>
    <path class="st0" d="M2131.28,46.17h162.55v42.18h-115.45v43.72h101.59v42.18h-101.59v45.26h116.99v42.18h-164.09V46.17Z"/>
    <path class="st0" d="M2411.43,44.63h43.72l92.36,217.04h-49.57l-19.7-48.33h-91.13l-19.7,48.33h-48.33l92.36-217.04ZM2461.31,171.47l-28.63-69.88-28.63,69.88h57.26Z"/>
    <path class="st0" d="M2557.35,154.54v-.62c0-61.26,47.72-111.45,112.99-111.45,38.79,0,62.19,10.47,84.66,29.55l-29.86,36.02c-16.62-13.85-31.4-21.86-56.34-21.86-34.48,0-61.88,30.48-61.88,67.11v.62c0,39.41,27.09,68.35,65.27,68.35,17.24,0,32.63-4.31,44.64-12.93v-30.79h-47.72v-40.95h93.59v93.59c-22.17,18.78-52.64,34.17-92.05,34.17-67.11,0-113.29-47.1-113.29-110.83Z"/>
    <path class="st0" d="M2804.87,169.32V46.17h47.41v121.91c0,35.1,17.55,53.26,46.49,53.26s46.49-17.55,46.49-51.72V46.17h47.41v121.6c0,65.27-36.64,97.28-94.51,97.28s-93.28-32.33-93.28-95.74Z"/>
    <path class="st0" d="M3040.99,46.17h162.55v42.18h-115.45v43.72h101.59v42.18h-101.59v45.26h116.99v42.18h-164.09V46.17Z"/>
  </g>
</svg>